<svg xmlns="http://www.w3.org/2000/svg" width="64" height="64" viewBox="0 0 64 64" fill="none">
  <rect width="64" height="64" rx="18" fill="#F4F9FF"/>
  <rect x="11" y="14" width="42" height="39" rx="10" fill="#FFFFFF" stroke="#5DA9E9" stroke-width="3"/>
  <path d="M11 24C11 20.6863 13.6863 18 17 18H47C50.3137 18 53 20.6863 53 24V27H11V24Z" fill="#5DA9E9"/>
  <rect x="18" y="10" width="4" height="11" rx="2" fill="#2F6EA6"/>
  <rect x="42" y="10" width="4" height="11" rx="2" fill="#2F6EA6"/>
  <rect x="19" y="33" width="8" height="8" rx="2.5" fill="#D9ECFF"/>
  <rect x="28" y="33" width="8" height="8" rx="2.5" fill="#8BC8FF"/>
  <rect x="37" y="33" width="8" height="8" rx="2.5" fill="#D9ECFF"/>
  <rect x="19" y="42" width="8" height="5" rx="2.5" fill="#D9ECFF"/>
  <rect x="28" y="42" width="17" height="5" rx="2.5" fill="#FD898A"/>
</svg>
